<svg width="255" height="81" viewBox="0 0 255 81" fill="none" xmlns="http://www.w3.org/2000/svg">
<path d="M36.8972 58.32C36.8972 55.9733 36.0172 54.0667 34.2572 52.6C32.5705 51.1333 30.4072 49.8133 27.7671 48.64C25.2005 47.3933 22.3771 46.1467 19.2971 44.9C16.2905 43.58 13.4671 42.0033 10.8271 40.17C8.26048 38.2633 6.09715 35.9167 4.33715 33.13C2.65048 30.3433 1.80715 26.7867 1.80715 22.46C1.80715 18.72 2.43048 15.4933 3.67715 12.78C4.92382 9.99333 6.68382 7.68333 8.95715 5.85C11.3038 4.01666 14.0538 2.65999 17.2071 1.78C20.3605 0.899996 23.8805 0.459995 27.7671 0.459995C32.2405 0.459995 36.4571 0.86333 40.4172 1.67C44.3772 2.40333 47.6405 3.50333 50.2071 4.97L45.4772 17.62C43.8638 16.5933 41.4438 15.6767 38.2171 14.87C34.9905 13.99 31.5071 13.55 27.7671 13.55C24.2471 13.55 21.5338 14.2467 19.6271 15.64C17.7938 17.0333 16.8771 18.9033 16.8771 21.25C16.8771 23.45 17.7205 25.2833 19.4071 26.75C21.1671 28.2167 23.3305 29.5733 25.8972 30.82C28.5371 32.0667 31.3605 33.35 34.3672 34.67C37.4471 35.99 40.2705 37.6033 42.8371 39.51C45.4772 41.3433 47.6405 43.6533 49.3272 46.44C51.0872 49.1533 51.9671 52.5633 51.9671 56.67C51.9671 60.7767 51.2705 64.3333 49.8772 67.34C48.5572 70.2733 46.6505 72.73 44.1572 74.71C41.7372 76.69 38.7671 78.1567 35.2471 79.11C31.8005 80.0633 27.9871 80.54 23.8072 80.54C18.3071 80.54 13.4671 80.0267 9.28715 79C5.10715 77.9733 2.02715 76.9467 0.0471485 75.92L4.88715 63.05C5.69382 63.49 6.72048 63.9667 7.96715 64.48C9.28715 64.9933 10.7538 65.47 12.3671 65.91C13.9805 66.35 15.6671 66.7167 17.4271 67.01C19.2605 67.3033 21.1305 67.45 23.0372 67.45C27.5105 67.45 30.9205 66.7167 33.2672 65.25C35.6872 63.71 36.8972 61.4 36.8972 58.32ZM55.9572 24H63.5472V13.66L77.8472 9.59V24H91.2672V36.1H77.8472V57.22C77.8472 61.0333 78.2139 63.7833 78.9472 65.47C79.7539 67.0833 81.2206 67.89 83.3472 67.89C84.8139 67.89 86.0606 67.7433 87.0872 67.45C88.1872 67.1567 89.3972 66.7167 90.7172 66.13L93.2472 77.13C91.2672 78.0833 88.9572 78.89 86.3172 79.55C83.6772 80.21 81.0006 80.54 78.2872 80.54C73.2272 80.54 69.4872 79.2567 67.0672 76.69C64.7206 74.05 63.5472 69.76 63.5472 63.82V36.1H55.9572V24ZM96.8497 51.5C96.8497 42.1867 99.1231 35.0367 103.67 30.05C108.216 24.99 114.596 22.46 122.81 22.46C127.21 22.46 131.023 23.1567 134.25 24.55C137.476 25.9433 140.153 27.9233 142.28 30.49C144.406 32.9833 145.983 36.0267 147.01 39.62C148.11 43.2133 148.66 47.1733 148.66 51.5C148.66 60.8133 146.386 68 141.84 73.06C137.366 78.0467 131.023 80.54 122.81 80.54C118.41 80.54 114.596 79.8433 111.37 78.45C108.143 77.0567 105.43 75.1133 103.23 72.62C101.103 70.0533 99.4897 66.9733 98.3897 63.38C97.3631 59.7867 96.8497 55.8267 96.8497 51.5ZM111.59 51.5C111.59 53.92 111.81 56.1567 112.25 58.21C112.69 60.2633 113.35 62.06 114.23 63.6C115.11 65.14 116.246 66.35 117.64 67.23C119.106 68.0367 120.83 68.44 122.81 68.44C126.55 68.44 129.336 67.0833 131.17 64.37C133.003 61.6567 133.92 57.3667 133.92 51.5C133.92 46.44 133.076 42.37 131.39 39.29C129.703 36.1367 126.843 34.56 122.81 34.56C119.29 34.56 116.54 35.88 114.56 38.52C112.58 41.16 111.59 45.4867 111.59 51.5ZM197.512 75.59C195.312 77.2033 192.635 78.4133 189.482 79.22C186.402 80.1 183.212 80.54 179.912 80.54C175.512 80.54 171.772 79.8433 168.692 78.45C165.685 77.0567 163.228 75.1133 161.322 72.62C159.415 70.0533 158.022 66.9733 157.142 63.38C156.335 59.7867 155.932 55.8267 155.932 51.5C155.932 42.1867 158.022 35.0367 162.202 30.05C166.382 24.99 172.468 22.46 180.462 22.46C184.495 22.46 187.722 22.79 190.142 23.45C192.635 24.11 194.872 24.9533 196.852 25.98L193.442 37.64C191.755 36.8333 190.068 36.21 188.382 35.77C186.768 35.33 184.898 35.11 182.772 35.11C178.812 35.11 175.805 36.43 173.752 39.07C171.698 41.6367 170.672 45.78 170.672 51.5C170.672 53.8467 170.928 56.01 171.442 57.99C171.955 59.97 172.725 61.6933 173.752 63.16C174.778 64.6267 176.098 65.8 177.712 66.68C179.398 67.4867 181.342 67.89 183.542 67.89C185.962 67.89 188.015 67.5967 189.702 67.01C191.388 66.35 192.892 65.58 194.212 64.7L197.512 75.59ZM224.31 56.23H220.46V79H206.16V1.99999H220.46V47.43L223.76 45.89L236.3 24H252.03L238.83 44.9L233.22 49.08L239.27 53.37L254.12 79H237.73L224.31 56.23Z" fill="#F1F2F6"/>
</svg>
