<svg width="190" height="31" viewBox="0 0 190 31" fill="none" xmlns="http://www.w3.org/2000/svg">
<path d="M62.4713 15.618H61.8233V21H59.3573V8.4H61.8233V13.98L62.3993 13.728L65.8733 8.4H68.6813L65.0093 13.692L64.0373 14.376L65.0453 15.078L69.2393 21H66.1973L62.4713 15.618ZM70.4115 12.522C70.8915 12.306 71.4615 12.138 72.1215 12.018C72.7815 11.886 73.4715 11.82 74.1915 11.82C74.8155 11.82 75.3375 11.898 75.7575 12.054C76.1775 12.198 76.5075 12.408 76.7475 12.684C76.9995 12.96 77.1735 13.29 77.2695 13.674C77.3775 14.058 77.4315 14.49 77.4315 14.97C77.4315 15.498 77.4135 16.032 77.3775 16.572C77.3415 17.1 77.3175 17.622 77.3055 18.138C77.3055 18.654 77.3235 19.158 77.3595 19.65C77.3955 20.13 77.4855 20.586 77.6295 21.018H75.7215L75.3435 19.776H75.2535C75.0135 20.148 74.6775 20.472 74.2455 20.748C73.8255 21.012 73.2795 21.144 72.6075 21.144C72.1875 21.144 71.8095 21.084 71.4735 20.964C71.1375 20.832 70.8495 20.652 70.6095 20.424C70.3695 20.184 70.1835 19.908 70.0515 19.596C69.9195 19.272 69.8535 18.912 69.8535 18.516C69.8535 17.964 69.9735 17.502 70.2135 17.13C70.4655 16.746 70.8195 16.44 71.2755 16.212C71.7435 15.972 72.2955 15.81 72.9315 15.726C73.5795 15.63 74.2995 15.6 75.0915 15.636C75.1755 14.964 75.1275 14.484 74.9475 14.196C74.7675 13.896 74.3655 13.746 73.7415 13.746C73.2735 13.746 72.7755 13.794 72.2475 13.89C71.7315 13.986 71.3055 14.112 70.9695 14.268L70.4115 12.522ZM73.3815 19.218C73.8495 19.218 74.2215 19.116 74.4975 18.912C74.7735 18.696 74.9775 18.468 75.1095 18.228V17.058C74.7375 17.022 74.3775 17.016 74.0295 17.04C73.6935 17.064 73.3935 17.118 73.1295 17.202C72.8655 17.286 72.6555 17.406 72.4995 17.562C72.3435 17.718 72.2655 17.916 72.2655 18.156C72.2655 18.492 72.3615 18.756 72.5535 18.948C72.7575 19.128 73.0335 19.218 73.3815 19.218ZM85.8751 14.07H83.3731V21H80.9611V14.07H78.3871V12H85.8751V14.07ZM86.8646 12.522C87.3446 12.306 87.9146 12.138 88.5746 12.018C89.2346 11.886 89.9246 11.82 90.6446 11.82C91.2686 11.82 91.7906 11.898 92.2106 12.054C92.6306 12.198 92.9606 12.408 93.2006 12.684C93.4526 12.96 93.6266 13.29 93.7226 13.674C93.8306 14.058 93.8846 14.49 93.8846 14.97C93.8846 15.498 93.8666 16.032 93.8306 16.572C93.7946 17.1 93.7706 17.622 93.7586 18.138C93.7586 18.654 93.7766 19.158 93.8126 19.65C93.8486 20.13 93.9386 20.586 94.0826 21.018H92.1746L91.7966 19.776H91.7066C91.4666 20.148 91.1306 20.472 90.6986 20.748C90.2786 21.012 89.7326 21.144 89.0606 21.144C88.6406 21.144 88.2626 21.084 87.9266 20.964C87.5906 20.832 87.3026 20.652 87.0626 20.424C86.8226 20.184 86.6366 19.908 86.5046 19.596C86.3726 19.272 86.3066 18.912 86.3066 18.516C86.3066 17.964 86.4266 17.502 86.6666 17.13C86.9186 16.746 87.2726 16.44 87.7286 16.212C88.1966 15.972 88.7486 15.81 89.3846 15.726C90.0326 15.63 90.7526 15.6 91.5446 15.636C91.6286 14.964 91.5806 14.484 91.4006 14.196C91.2206 13.896 90.8186 13.746 90.1946 13.746C89.7266 13.746 89.2286 13.794 88.7006 13.89C88.1846 13.986 87.7586 14.112 87.4226 14.268L86.8646 12.522ZM89.8346 19.218C90.3026 19.218 90.6746 19.116 90.9506 18.912C91.2266 18.696 91.4306 18.468 91.5626 18.228V17.058C91.1906 17.022 90.8306 17.016 90.4826 17.04C90.1466 17.064 89.8466 17.118 89.5826 17.202C89.3186 17.286 89.1086 17.406 88.9526 17.562C88.7966 17.718 88.7186 17.916 88.7186 18.156C88.7186 18.492 88.8146 18.756 89.0066 18.948C89.2106 19.128 89.4866 19.218 89.8346 19.218ZM100.744 14.07H98.9623C98.8903 14.922 98.8063 15.768 98.7103 16.608C98.6143 17.448 98.4583 18.204 98.2423 18.876C98.0383 19.536 97.7563 20.076 97.3963 20.496C97.0363 20.904 96.5683 21.108 95.9923 21.108C95.2963 21.108 94.8043 21.018 94.5163 20.838L94.8043 18.894C94.9963 18.966 95.1763 19.002 95.3443 19.002C95.5843 19.002 95.7943 18.9 95.9743 18.696C96.1543 18.492 96.3043 18.126 96.4243 17.598C96.5563 17.07 96.6583 16.356 96.7303 15.456C96.8143 14.544 96.8743 13.392 96.9103 12H103.084V21H100.744V14.07ZM104.68 16.5C104.68 14.976 105.052 13.806 105.796 12.99C106.54 12.162 107.584 11.748 108.928 11.748C109.648 11.748 110.272 11.862 110.8 12.09C111.328 12.318 111.766 12.642 112.114 13.062C112.462 13.47 112.72 13.968 112.888 14.556C113.068 15.144 113.158 15.792 113.158 16.5C113.158 18.024 112.786 19.2 112.042 20.028C111.31 20.844 110.272 21.252 108.928 21.252C108.208 21.252 107.584 21.138 107.056 20.91C106.528 20.682 106.084 20.364 105.724 19.956C105.376 19.536 105.112 19.032 104.932 18.444C104.764 17.856 104.68 17.208 104.68 16.5ZM107.092 16.5C107.092 16.896 107.128 17.262 107.2 17.598C107.272 17.934 107.38 18.228 107.524 18.48C107.668 18.732 107.854 18.93 108.082 19.074C108.322 19.206 108.604 19.272 108.928 19.272C109.54 19.272 109.996 19.05 110.296 18.606C110.596 18.162 110.746 17.46 110.746 16.5C110.746 15.672 110.608 15.006 110.332 14.502C110.056 13.986 109.588 13.728 108.928 13.728C108.352 13.728 107.902 13.944 107.578 14.376C107.254 14.808 107.092 15.516 107.092 16.5ZM120.594 14.07H117.192V21H114.78V12H120.594V14.07ZM131.684 14.07H129.182V21H126.77V14.07H124.196V12H131.684V14.07ZM132.155 16.5C132.155 14.976 132.527 13.806 133.271 12.99C134.015 12.162 135.059 11.748 136.403 11.748C137.123 11.748 137.747 11.862 138.275 12.09C138.803 12.318 139.241 12.642 139.589 13.062C139.937 13.47 140.195 13.968 140.363 14.556C140.543 15.144 140.633 15.792 140.633 16.5C140.633 18.024 140.261 19.2 139.517 20.028C138.785 20.844 137.747 21.252 136.403 21.252C135.683 21.252 135.059 21.138 134.531 20.91C134.003 20.682 133.559 20.364 133.199 19.956C132.851 19.536 132.587 19.032 132.407 18.444C132.239 17.856 132.155 17.208 132.155 16.5ZM134.567 16.5C134.567 16.896 134.603 17.262 134.675 17.598C134.747 17.934 134.855 18.228 134.999 18.48C135.143 18.732 135.329 18.93 135.557 19.074C135.797 19.206 136.079 19.272 136.403 19.272C137.015 19.272 137.471 19.05 137.771 18.606C138.071 18.162 138.221 17.46 138.221 16.5C138.221 15.672 138.083 15.006 137.807 14.502C137.531 13.986 137.063 13.728 136.403 13.728C135.827 13.728 135.377 13.944 135.053 14.376C134.729 14.808 134.567 15.516 134.567 16.5ZM142.255 12.018C142.675 11.982 143.179 11.946 143.767 11.91C144.367 11.874 145.009 11.856 145.693 11.856C147.013 11.856 147.949 12.048 148.501 12.432C149.065 12.804 149.347 13.368 149.347 14.124C149.347 14.544 149.227 14.952 148.987 15.348C148.747 15.744 148.369 16.032 147.853 16.212V16.284C148.501 16.428 148.969 16.686 149.257 17.058C149.545 17.418 149.689 17.886 149.689 18.462C149.689 19.362 149.341 20.034 148.645 20.478C147.961 20.922 146.857 21.144 145.333 21.144C144.829 21.144 144.295 21.126 143.731 21.09C143.167 21.066 142.675 21.03 142.255 20.982V12.018ZM144.541 19.2C144.709 19.224 144.865 19.242 145.009 19.254C145.153 19.266 145.333 19.272 145.549 19.272C146.197 19.272 146.659 19.182 146.935 19.002C147.211 18.822 147.349 18.546 147.349 18.174C147.349 17.862 147.229 17.61 146.989 17.418C146.761 17.214 146.347 17.112 145.747 17.112H144.541V19.2ZM145.783 15.672C146.167 15.672 146.479 15.582 146.719 15.402C146.971 15.21 147.097 14.97 147.097 14.682C147.097 14.37 146.989 14.136 146.773 13.98C146.569 13.812 146.191 13.728 145.639 13.728C145.363 13.728 145.141 13.734 144.973 13.746C144.817 13.758 144.673 13.77 144.541 13.782V15.672H145.783ZM151.288 12.522C151.768 12.306 152.338 12.138 152.998 12.018C153.658 11.886 154.348 11.82 155.068 11.82C155.692 11.82 156.214 11.898 156.634 12.054C157.054 12.198 157.384 12.408 157.624 12.684C157.876 12.96 158.05 13.29 158.146 13.674C158.254 14.058 158.308 14.49 158.308 14.97C158.308 15.498 158.29 16.032 158.254 16.572C158.218 17.1 158.194 17.622 158.182 18.138C158.182 18.654 158.2 19.158 158.236 19.65C158.272 20.13 158.362 20.586 158.506 21.018H156.598L156.22 19.776H156.13C155.89 20.148 155.554 20.472 155.122 20.748C154.702 21.012 154.156 21.144 153.484 21.144C153.064 21.144 152.686 21.084 152.35 20.964C152.014 20.832 151.726 20.652 151.486 20.424C151.246 20.184 151.06 19.908 150.928 19.596C150.796 19.272 150.73 18.912 150.73 18.516C150.73 17.964 150.85 17.502 151.09 17.13C151.342 16.746 151.696 16.44 152.152 16.212C152.62 15.972 153.172 15.81 153.808 15.726C154.456 15.63 155.176 15.6 155.968 15.636C156.052 14.964 156.004 14.484 155.824 14.196C155.644 13.896 155.242 13.746 154.618 13.746C154.15 13.746 153.652 13.794 153.124 13.89C152.608 13.986 152.182 14.112 151.846 14.268L151.288 12.522ZM154.258 19.218C154.726 19.218 155.098 19.116 155.374 18.912C155.65 18.696 155.854 18.468 155.986 18.228V17.058C155.614 17.022 155.254 17.016 154.906 17.04C154.57 17.064 154.27 17.118 154.006 17.202C153.742 17.286 153.532 17.406 153.376 17.562C153.22 17.718 153.142 17.916 153.142 18.156C153.142 18.492 153.238 18.756 153.43 18.948C153.634 19.128 153.91 19.218 154.258 19.218ZM160.272 12H161.982L162.252 13.08H162.324C162.636 12.624 163.002 12.288 163.422 12.072C163.854 11.856 164.376 11.748 164.988 11.748C166.116 11.748 166.962 12.108 167.526 12.828C168.09 13.536 168.372 14.682 168.372 16.266C168.372 17.034 168.282 17.73 168.102 18.354C167.922 18.966 167.652 19.488 167.292 19.92C166.944 20.352 166.512 20.682 165.996 20.91C165.492 21.138 164.91 21.252 164.25 21.252C163.878 21.252 163.572 21.222 163.332 21.162C163.092 21.114 162.852 21.03 162.612 20.91V24.6H160.272V12ZM164.286 13.728C163.83 13.728 163.47 13.842 163.206 14.07C162.954 14.298 162.756 14.64 162.612 15.096V18.84C162.78 18.972 162.96 19.08 163.152 19.164C163.356 19.236 163.62 19.272 163.944 19.272C164.616 19.272 165.12 19.038 165.456 18.57C165.792 18.09 165.96 17.304 165.96 16.212C165.96 15.42 165.828 14.808 165.564 14.376C165.3 13.944 164.874 13.728 164.286 13.728ZM169.561 16.5C169.561 14.976 169.933 13.806 170.677 12.99C171.421 12.162 172.465 11.748 173.809 11.748C174.529 11.748 175.153 11.862 175.681 12.09C176.209 12.318 176.647 12.642 176.995 13.062C177.343 13.47 177.601 13.968 177.769 14.556C177.949 15.144 178.039 15.792 178.039 16.5C178.039 18.024 177.667 19.2 176.923 20.028C176.191 20.844 175.153 21.252 173.809 21.252C173.089 21.252 172.465 21.138 171.937 20.91C171.409 20.682 170.965 20.364 170.605 19.956C170.257 19.536 169.993 19.032 169.813 18.444C169.645 17.856 169.561 17.208 169.561 16.5ZM171.973 16.5C171.973 16.896 172.009 17.262 172.081 17.598C172.153 17.934 172.261 18.228 172.405 18.48C172.549 18.732 172.735 18.93 172.963 19.074C173.203 19.206 173.485 19.272 173.809 19.272C174.421 19.272 174.877 19.05 175.177 18.606C175.477 18.162 175.627 17.46 175.627 16.5C175.627 15.672 175.489 15.006 175.213 14.502C174.937 13.986 174.469 13.728 173.809 13.728C173.233 13.728 172.783 13.944 172.459 14.376C172.135 14.808 171.973 15.516 171.973 16.5ZM179.661 12.018C180.081 11.982 180.585 11.946 181.173 11.91C181.773 11.874 182.415 11.856 183.099 11.856C184.419 11.856 185.355 12.048 185.907 12.432C186.471 12.804 186.753 13.368 186.753 14.124C186.753 14.544 186.633 14.952 186.393 15.348C186.153 15.744 185.775 16.032 185.259 16.212V16.284C185.907 16.428 186.375 16.686 186.663 17.058C186.951 17.418 187.095 17.886 187.095 18.462C187.095 19.362 186.747 20.034 186.051 20.478C185.367 20.922 184.263 21.144 182.739 21.144C182.235 21.144 181.701 21.126 181.137 21.09C180.573 21.066 180.081 21.03 179.661 20.982V12.018ZM181.947 19.2C182.115 19.224 182.271 19.242 182.415 19.254C182.559 19.266 182.739 19.272 182.955 19.272C183.603 19.272 184.065 19.182 184.341 19.002C184.617 18.822 184.755 18.546 184.755 18.174C184.755 17.862 184.635 17.61 184.395 17.418C184.167 17.214 183.753 17.112 183.153 17.112H181.947V19.2ZM183.189 15.672C183.573 15.672 183.885 15.582 184.125 15.402C184.377 15.21 184.503 14.97 184.503 14.682C184.503 14.37 184.395 14.136 184.179 13.98C183.975 13.812 183.597 13.728 183.045 13.728C182.769 13.728 182.547 13.734 182.379 13.746C182.223 13.758 182.079 13.77 181.947 13.782V15.672H183.189Z" fill="#4798DE"/>
<circle cx="3.5" cy="3.5" r="3.5" fill="#4798DE"/>
<circle cx="3.5" cy="15.5" r="3.5" fill="#4798DE"/>
<circle cx="3.5" cy="27.5" r="3.5" fill="#4798DE"/>
<circle cx="15.5" cy="3.5" r="3.5" fill="#4798DE"/>
<circle cx="15.5" cy="15.5" r="3.5" fill="#4798DE"/>
<circle cx="15.5" cy="27.5" r="3.5" fill="#4798DE"/>
<circle cx="27.5" cy="3.5" r="3.5" fill="#4798DE"/>
<circle cx="27.5" cy="15.5" r="3.5" fill="#4798DE"/>
<circle cx="27.5" cy="27.5" r="3.5" fill="#4798DE"/>
</svg>
