<svg width="20" height="20" viewBox="0 0 20 20" fill="none" xmlns="http://www.w3.org/2000/svg">
<path d="M4.58398 16.25C6.52843 15.4167 7.77843 14.7222 8.33398 14.1667C9.16732 13.3333 6.66732 13.3333 6.66732 9.16667C6.66732 6.38889 7.77843 5 10.0007 5C12.2229 5 13.334 6.38889 13.334 9.16667C13.334 13.3333 10.834 13.3333 11.6673 14.1667C12.2229 14.7222 13.4729 15.4167 15.4173 16.25" stroke="#ffffff" stroke-linecap="round"/>
<path d="M9.99935 18.3332C14.6017 18.3332 18.3327 14.6022 18.3327 9.99984C18.3327 5.39746 14.6017 1.6665 9.99935 1.6665C5.39698 1.6665 1.66602 5.39746 1.66602 9.99984C1.66602 14.6022 5.39698 18.3332 9.99935 18.3332Z" stroke="#ffffff" stroke-linecap="square"/>
</svg>
